<svg width="557" height="164" viewBox="0 0 557 164" fill="none" xmlns="http://www.w3.org/2000/svg">
<path d="M70.52 125.788C61.992 125.788 57.728 122.125 57.728 114.8C57.728 112.395 58.056 109.661 58.712 106.6C59.4773 103.429 60.516 99.384 61.828 94.464C63.3587 89.3253 64.5067 84.952 65.272 81.344C66.0373 77.736 66.42 74.5107 66.42 71.668C66.42 64.2333 63.14 60.516 56.58 60.516C54.8307 60.516 53.0267 60.7347 51.168 61.172L38.048 123H14.432L36.736 18.696L61.008 15.416L52.972 53.3H54.284C58.548 53.3 62.484 51.824 66.092 48.872C69.7 45.92 72.488 42.2573 74.456 37.884C76.5333 33.4013 77.572 29.028 77.572 24.764C77.572 19.7347 76.0413 15.6347 72.98 12.464C70.028 9.184 65.5453 7.544 59.532 7.544C50.676 7.544 42.9133 9.12934 36.244 12.3C29.5747 15.4707 24.3813 20.0627 20.664 26.076C17.056 32.0893 15.252 39.196 15.252 47.396C15.252 51.4413 15.6347 54.284 16.4 55.924C17.1653 57.4547 17.548 58.3293 17.548 58.548C11.644 58.548 7.21599 57.3453 4.26399 54.94C1.42132 52.4253 -8.78051e-06 48.3253 -8.78051e-06 42.64C-8.78051e-06 35.6427 2.84266 28.864 8.52799 22.304C14.3227 15.6347 21.7027 10.2773 30.668 6.23201C39.6333 2.07734 48.5987 1.66893e-06 57.564 1.66893e-06C65.764 1.66893e-06 72.652 1.20267 78.228 3.608C83.804 6.01334 87.9587 9.23867 90.692 13.284C93.4253 17.22 94.792 21.5387 94.792 26.24C94.792 31.3787 93.2067 36.5173 90.036 41.656C86.8653 46.7947 82.5467 51.004 77.08 54.284C81.2347 55.4867 84.132 57.5093 85.772 60.352C87.5213 63.0853 88.396 66.5293 88.396 70.684C88.396 73.8547 88.0133 77.244 87.248 80.852C86.4827 84.3507 85.3893 88.724 83.968 93.972C83.0933 97.3613 82.2733 100.696 81.508 103.976C80.7427 107.256 80.36 109.989 80.36 112.176C80.36 114.691 80.9067 116.932 82 118.9C83.2027 120.868 84.788 122.235 86.756 123C80.0867 124.859 74.6747 125.788 70.52 125.788ZM120.964 123.984C112.873 123.984 106.587 121.907 102.104 117.752C97.6214 113.488 95.3801 106.873 95.3801 97.908C95.3801 90.364 96.8561 82.0547 99.8081 72.98C102.76 63.9053 107.571 56.088 114.24 49.528C120.909 42.8587 129.383 39.524 139.66 39.524C151.687 39.524 157.7 44.772 157.7 55.268C157.7 61.3907 155.951 67.0213 152.452 72.16C148.953 77.2987 144.307 81.4533 138.512 84.624C132.717 87.6853 126.54 89.4347 119.98 89.872C119.761 93.152 119.652 95.3387 119.652 96.432C119.652 101.789 120.581 105.452 122.44 107.42C124.299 109.279 127.305 110.208 131.46 110.208C137.364 110.208 142.393 108.841 146.548 106.108C150.812 103.375 155.459 99.22 160.488 93.644H166.064C153.928 113.871 138.895 123.984 120.964 123.984ZM121.292 82C125.337 81.7813 129.164 80.36 132.772 77.736C136.489 75.112 139.441 71.7773 141.628 67.732C143.924 63.6867 145.072 59.4227 145.072 54.94C145.072 50.4573 143.705 48.216 140.972 48.216C137.036 48.216 133.155 51.66 129.328 58.548C125.611 65.436 122.932 73.2533 121.292 82ZM183.905 123.984C175.815 123.984 169.528 121.907 165.045 117.752C160.563 113.488 158.321 106.873 158.321 97.908C158.321 90.364 159.797 82.0547 162.749 72.98C165.811 63.9053 170.621 56.088 177.181 49.528C183.851 42.8587 192.269 39.524 202.437 39.524C208.997 39.524 213.644 40.9453 216.377 43.788C219.22 46.6307 220.641 50.2387 220.641 54.612C220.641 58.4387 219.821 61.3907 218.181 63.468C216.541 65.5453 214.464 66.584 211.949 66.584C210.091 66.584 208.177 65.928 206.209 64.616C207.521 61.008 208.177 57.7827 208.177 54.94C208.177 52.8627 207.795 51.2227 207.029 50.02C206.264 48.8173 205.116 48.216 203.585 48.216C200.305 48.216 197.025 50.8947 193.745 56.252C190.465 61.6093 187.787 68.1147 185.709 75.768C183.632 83.4213 182.593 90.3093 182.593 96.432C182.593 101.789 183.523 105.452 185.381 107.42C187.24 109.279 190.247 110.208 194.401 110.208C200.305 110.208 205.335 108.841 209.489 106.108C213.753 103.375 218.4 99.22 223.429 93.644H229.005C216.869 113.871 201.836 123.984 183.905 123.984ZM250.783 32.144C247.175 32.144 244.114 30.8867 241.599 28.372C239.084 25.8573 237.827 22.796 237.827 19.188C237.827 15.58 239.084 12.5187 241.599 10.004C244.114 7.38 247.175 6.068 250.783 6.068C254.391 6.068 257.452 7.38 259.967 10.004C262.591 12.5187 263.903 15.58 263.903 19.188C263.903 22.796 262.591 25.8573 259.967 28.372C257.452 30.8867 254.391 32.144 250.783 32.144ZM239.631 123.984C234.383 123.984 230.119 122.344 226.839 119.064C223.668 115.784 222.083 110.864 222.083 104.304C222.083 101.571 222.52 98.0173 223.395 93.644L234.547 41H258.163L246.355 96.76C245.918 98.4 245.699 100.149 245.699 102.008C245.699 104.195 246.191 105.78 247.175 106.764C248.268 107.639 250.018 108.076 252.423 108.076C255.594 108.076 258.546 106.764 261.279 104.14C264.012 101.407 265.98 97.908 267.183 93.644H274.071C270.026 105.452 264.832 113.488 258.491 117.752C252.15 121.907 245.863 123.984 239.631 123.984ZM279.582 34.932H303.198L300.574 47.232C306.04 42.5307 312.436 40.18 319.762 40.18C325.884 40.18 330.75 42.2027 334.358 46.248C337.966 50.2933 339.77 56.908 339.77 66.092C339.77 74.7293 338.512 83.476 335.998 92.332C333.483 101.079 329.219 108.568 323.206 114.8C317.192 120.923 309.266 123.984 299.426 123.984C292.428 123.984 287.782 122.016 285.486 118.08L276.958 158.096L252.194 164L279.582 34.932ZM294.342 109.716C299.59 109.716 303.908 107.256 307.298 102.336C310.796 97.416 313.311 91.5667 314.842 84.788C316.482 77.9 317.302 71.504 317.302 65.6C317.302 56.5253 314.568 51.988 309.102 51.988C307.134 51.988 305.111 52.6987 303.034 54.12C301.066 55.5413 299.316 57.5093 297.786 60.024L288.11 105.944C288.984 108.459 291.062 109.716 294.342 109.716ZM366.956 123.984C358.975 123.984 352.743 121.907 348.26 117.752C343.778 113.488 341.536 106.873 341.536 97.908C341.536 90.364 343.012 82.0547 345.964 72.98C348.916 63.9053 353.727 56.088 360.396 49.528C367.066 42.8587 375.539 39.524 385.816 39.524C397.843 39.524 403.856 44.772 403.856 55.268C403.856 61.3907 402.107 67.0213 398.608 72.16C395.11 77.2987 390.463 81.4533 384.668 84.624C378.874 87.6853 372.696 89.4347 366.136 89.872C365.918 92.2773 365.808 93.9173 365.808 94.792C365.808 103.867 369.198 108.404 375.976 108.404C379.038 108.404 382.318 107.584 385.816 105.944C389.315 104.304 392.486 102.227 395.328 99.712C392.376 115.893 382.919 123.984 366.956 123.984ZM367.284 82C371.439 81.8907 375.32 80.524 378.928 77.9C382.646 75.276 385.598 71.9413 387.784 67.896C390.08 63.7413 391.228 59.4227 391.228 54.94C391.228 50.4573 389.862 48.216 387.128 48.216C383.302 48.216 379.475 51.7147 375.648 58.712C371.931 65.6 369.143 73.3627 367.284 82ZM482.119 71.504C482.119 75.768 480.479 79.54 477.199 82.82C473.919 86.1 469.71 88.232 464.571 89.216L457.355 123H434.559L446.859 87.74L443.743 86.756C439.37 85.5533 435.926 84.6787 433.411 84.132C430.896 83.5853 428.218 83.312 425.375 83.312C418.159 83.312 412.255 84.46 407.663 86.756H407.007L403.563 80.36V79.54C414.824 66.092 423.626 54.0107 429.967 43.296C436.308 32.5813 439.479 22.3587 439.479 12.628C439.479 9.34801 439.042 5.95868 438.167 2.46001C440.463 1.69467 443.196 1.312 446.367 1.312C451.287 1.312 455.114 2.67867 457.847 5.41201C460.58 8.03601 461.947 11.4253 461.947 15.58C461.947 20.5 459.76 26.3493 455.387 33.128C451.123 39.7973 445.82 46.4667 439.479 53.136C433.247 59.696 427.124 65.3813 421.111 70.192L421.275 70.684C423.243 69.9187 425.539 69.2627 428.163 68.716C430.896 68.06 433.466 67.732 435.871 67.732C438.604 67.732 441.884 68.06 445.711 68.716C449.538 69.372 451.943 69.8093 452.927 70.028L466.211 31.816H476.707L468.671 69.864C472.498 68.4427 475.942 65.8733 479.003 62.156L479.495 62.484C481.244 65.5453 482.119 68.552 482.119 71.504ZM467.127 164C461.988 164 457.506 162.305 453.679 158.916C449.743 155.636 447.775 151.427 447.775 146.288C447.775 141.587 448.978 137.705 451.383 134.644C453.788 131.583 456.904 129.123 460.731 127.264C464.558 125.515 469.642 123.656 475.983 121.688L495.827 28.044C498.014 17.548 501.84 10.2773 507.307 6.23201C512.883 2.18668 519.006 0.164009 525.675 0.164009C530.814 0.164009 535.296 1.85867 539.123 5.248C543.059 8.52801 545.027 12.7373 545.027 17.876C545.027 20.3907 544.863 22.632 544.535 24.6H536.827C537.046 22.1947 537.155 20.7187 537.155 20.172C537.155 18.4227 536.554 17.056 535.351 16.072C534.148 15.088 532.672 14.596 530.923 14.596C528.627 14.596 526.386 15.6347 524.199 17.712C522.012 19.68 520.427 23.124 519.443 28.044L516.655 41H528.627L527.479 47.56H515.343L496.483 136.12C494.296 146.725 490.524 153.996 485.167 157.932C479.81 161.977 473.796 164 467.127 164ZM463.355 149.404C467.728 149.404 470.844 145.14 472.703 136.612L474.835 127.1C469.04 129.068 464.612 131.309 461.551 133.824C458.38 136.448 456.795 139.837 456.795 143.992C456.795 145.304 457.451 146.507 458.763 147.6C460.075 148.803 461.606 149.404 463.355 149.404Z" fill="black"/>
<path d="M543.65 123.656C540.042 123.656 536.98 122.399 534.466 119.884C531.951 117.369 530.694 114.308 530.694 110.7C530.694 107.092 531.951 104.031 534.466 101.516C536.98 98.892 540.042 97.58 543.65 97.58C547.258 97.58 550.319 98.892 552.834 101.516C555.458 104.031 556.77 107.092 556.77 110.7C556.77 114.308 555.458 117.369 552.834 119.884C550.319 122.399 547.258 123.656 543.65 123.656Z" fill="#FF7426"/>
</svg>
